<?xml version="1.0" standalone="no"?>
<!DOCTYPE svg PUBLIC "-//W3C//DTD SVG 20010904//EN"
 "http://www.w3.org/TR/2001/REC-SVG-20010904/DTD/svg10.dtd">
<svg version="1.0" xmlns="http://www.w3.org/2000/svg"
 width="225.000000pt" height="225.000000pt" viewBox="0 0 225.000000 225.000000"
 preserveAspectRatio="xMidYMid meet">
<metadata>
Created by potrace 1.14, written by Peter Selinger 2001-2017
</metadata>
<g transform="translate(0.000000,225.000000) scale(0.100000,-0.100000)"
fill="#000000" stroke="none">
<path d="M1267 1962 c-13 -14 -17 -39 -17 -110 l0 -91 -82 -3 -83 -3 -3 -37
c-2 -22 1 -38 7 -38 16 0 14 -259 -1 -293 -13 -26 -15 -27 -102 -27 -73 0 -98
4 -135 22 -71 35 -175 37 -244 5 -118 -54 -169 -137 -175 -288 -5 -119 12
-187 63 -247 24 -27 35 -50 33 -64 -3 -23 -6 -23 -151 -26 -195 -3 -196 -22
-1 -22 l147 0 -6 -59 c-5 -45 -3 -62 8 -71 18 -15 21 -100 4 -117 -6 -6 -9
-21 -7 -34 3 -23 6 -24 83 -24 l80 0 3 83 3 82 29 0 c33 0 34 -3 35 -115 l0
-50 76 -3 c90 -3 113 10 85 53 -21 32 -21 108 0 126 12 10 14 24 9 71 l-7 58
542 0 c468 0 541 2 537 14 -3 8 5 74 19 147 13 73 24 134 24 136 0 1 9 3 21 3
36 0 59 19 59 48 0 49 -11 52 -197 52 l-173 0 0 89 c0 50 5 93 10 96 13 8 13
62 0 70 -14 9 -13 285 1 285 6 0 9 16 7 38 l-3 37 -82 3 -83 3 0 87 c0 133 1
132 -174 132 -126 0 -145 -2 -159 -18z m301 -14 c17 -17 17 -259 0 -276 -17
-17 -269 -17 -286 0 -8 8 -12 53 -12 138 0 85 4 130 12 138 8 8 54 12 143 12
89 0 135 -4 143 -12z m-340 -204 c13 -4 22 -14 22 -25 0 -17 -8 -19 -75 -19
-66 0 -75 2 -75 18 0 10 3 22 7 25 8 9 90 9 121 1z m520 -21 c3 -22 0 -23 -72
-23 -68 0 -76 2 -76 19 0 24 19 30 90 28 49 -2 55 -5 58 -24z m-483 -63 c16
-18 31 -20 161 -20 133 0 144 1 157 21 13 17 23 20 78 17 l64 -3 3 -137 3
-138 -306 0 -305 0 0 140 0 140 63 0 c51 0 68 -4 82 -20z m-523 -292 l-22 -22
-22 22 -22 22 44 0 44 0 -22 -22z m-62 -13 l24 -26 -26 -25 -25 -26 -17 42
c-25 63 0 82 44 35z m142 19 c7 -7 -23 -84 -32 -84 -4 0 -18 9 -31 19 l-24 19
24 26 c23 24 50 33 63 20z m928 -19 l0 -25 -325 0 -325 0 0 25 0 25 325 0 325
0 0 -25z m-1102 -120 c28 -69 48 -125 46 -125 -2 0 -26 15 -53 33 -45 29 -49
35 -44 62 3 17 6 35 7 40 0 6 -14 11 -31 13 -37 4 -38 7 -19 53 31 73 35 70
94 -76z m239 74 l21 -44 -35 -3 -36 -3 6 -44 c6 -43 6 -43 -40 -74 -26 -16
-49 -29 -51 -27 -7 7 94 246 103 243 6 -2 20 -23 32 -48z m199 17 c11 -12 14
-65 14 -291 l0 -276 -92 3 c-89 3 -93 4 -96 27 -3 15 6 34 26 55 16 17 35 41
41 54 8 15 21 22 39 22 39 0 52 17 52 66 0 58 -8 74 -36 74 -20 0 -24 5 -24
30 0 23 5 30 19 30 31 0 42 25 39 82 l-3 53 -42 3 c-35 3 -47 9 -73 43 l-32
39 77 0 c53 0 81 -4 91 -14z m-563 -51 c-5 -34 -5 -35 27 -35 32 0 32 -1 27
-36 -7 -39 -5 -40 78 -97 l50 -34 3 -227 2 -227 -87 3 -88 3 2 30 c1 17 4 56
8 88 6 52 9 57 31 57 18 0 27 9 39 36 20 49 19 71 -5 84 -34 18 -50 64 -50
140 0 40 -4 70 -10 70 -6 0 -10 -31 -10 -72 0 -74 19 -126 58 -154 12 -9 13
-17 3 -47 -8 -24 -19 -37 -30 -37 -21 0 -73 53 -97 100 -19 39 -31 171 -20
242 6 37 58 148 71 148 2 0 1 -16 -2 -35z m434 -23 c25 -42 28 -59 32 -156 2
-66 -1 -124 -9 -148 -12 -43 -84 -128 -106 -128 -8 0 -22 16 -31 35 -16 34
-16 36 5 51 38 26 52 67 52 149 0 43 -4 75 -10 75 -6 0 -10 -33 -10 -80 0 -78
-1 -81 -36 -120 -35 -38 -36 -42 -24 -73 18 -44 29 -57 51 -57 21 0 26 -13 34
-107 l7 -73 -91 0 -91 0 0 225 0 225 71 47 70 47 -6 38 c-7 37 -6 38 24 38 37
0 44 10 31 45 -15 40 5 22 37 -33z m771 -214 l-3 -273 -70 0 -70 0 -5 145 -5
145 -150 0 -150 0 -5 -145 -5 -145 -70 0 -70 0 -3 273 -2 272 305 0 305 0 -2
-272z m-1040 212 c-11 -32 -12 -33 -20 -11 -6 18 -4 27 9 36 24 18 25 14 11
-25z m92 7 c-1 -34 -17 -35 -27 -2 -10 32 -10 34 8 24 10 -5 19 -15 19 -22z
m-44 -108 l-14 -34 -14 35 c-14 34 -13 46 9 110 3 9 11 -4 19 -31 12 -40 12
-52 0 -80z m304 46 c0 -30 -4 -45 -13 -45 -7 0 -17 20 -23 45 -10 43 -10 45
13 45 21 0 23 -5 23 -45z m1063 -87 c2 -7 0 -21 -5 -30 -8 -16 -27 -18 -178
-18 l-170 0 0 30 0 30 174 0 c130 0 175 -3 179 -12z m-1063 -118 c0 -38 -4
-50 -15 -50 -11 0 -15 12 -15 50 0 38 4 50 15 50 11 0 15 -12 15 -50z m370
-85 l0 -135 -60 0 -60 0 0 135 0 135 60 0 60 0 0 -135z m150 0 l0 -135 -60 0
-60 0 0 135 0 135 60 0 60 0 0 -135z m389 118 c0 -10 -10 -72 -23 -138 l-22
-120 -77 -3 -77 -3 0 141 0 140 100 0 c89 0 100 -2 99 -17z m66 -10 c-3 -16
-14 -77 -25 -136 -11 -59 -20 -110 -20 -113 0 -2 -9 -4 -20 -4 -26 0 -25 12 2
161 20 111 23 119 45 119 19 0 22 -4 18 -27z"/>
<path d="M1382 1918 c-6 -6 -12 -22 -12 -34 0 -17 -7 -23 -27 -26 -26 -3 -28
-6 -28 -48 0 -42 2 -45 28 -48 21 -3 27 -9 27 -26 0 -32 22 -48 62 -44 29 3
33 7 36 35 3 28 7 32 35 35 31 3 32 5 32 48 0 42 -2 45 -30 50 -24 4 -31 11
-35 35 -4 26 -10 30 -40 33 -19 2 -41 -3 -48 -10z"/>
<path d="M1191 1571 c-16 -28 -13 -96 3 -110 8 -7 36 -11 63 -9 l48 3 0 65 0
65 -52 3 c-43 3 -54 0 -62 -17z m97 -53 l3 -48 -40 0 -41 0 0 51 0 50 38 -3
c37 -3 37 -3 40 -50z"/>
<path d="M1371 1576 c-7 -8 -11 -37 -9 -68 l3 -53 54 -3 c37 -2 57 1 62 10 13
20 11 102 -3 116 -17 17 -93 15 -107 -2z m89 -57 l0 -50 -37 3 c-35 3 -38 6
-41 36 -5 50 3 62 43 62 l35 0 0 -51z"/>
<path d="M1544 1577 c-3 -8 -4 -39 -2 -68 l3 -54 55 0 55 0 0 65 0 65 -53 3
c-38 2 -54 -1 -58 -11z m96 -57 l0 -50 -40 0 -40 0 0 50 0 50 40 0 40 0 0 -50z"/>
<path d="M1186 1245 c-12 -31 -6 -93 10 -109 19 -20 87 -21 103 -2 7 8 11 37
9 68 l-3 53 -56 3 c-45 2 -58 0 -63 -13z m104 -50 l0 -45 -40 0 -40 0 0 45 0
45 40 0 40 0 0 -45z"/>
<path d="M1367 1254 c-12 -12 -8 -109 5 -122 17 -17 93 -15 107 2 7 8 11 37 9
68 l-3 53 -55 3 c-31 2 -59 0 -63 -4z m93 -59 l0 -45 -40 0 -40 0 0 45 0 45
40 0 40 0 0 -45z"/>
<path d="M1547 1254 c-4 -4 -7 -33 -7 -65 0 -62 6 -69 63 -69 51 0 58 10 55
76 l-3 59 -50 3 c-28 2 -54 0 -58 -4z m93 -59 l0 -45 -40 0 -40 0 0 45 0 45
40 0 40 0 0 -45z"/>
<path d="M705 1885 c-5 -2 -22 -6 -38 -9 -38 -9 -104 -71 -116 -109 -5 -18
-12 -69 -16 -115 -5 -68 -4 -83 8 -88 9 -3 27 -22 40 -43 60 -90 206 -98 264
-15 10 14 30 39 46 55 30 33 34 60 12 79 -12 10 -14 24 -9 60 10 74 -41 154
-111 173 -39 10 -70 15 -80 12z m-25 -190 c16 -9 55 -14 108 -15 80 0 82 -1
82 -24 0 -13 7 -26 15 -30 20 -7 19 -32 -3 -48 -9 -7 -25 -26 -35 -41 -57 -89
-204 -89 -251 0 -8 15 -24 36 -35 45 -26 22 -20 35 35 76 24 18 44 37 44 42 0
13 10 12 40 -5z"/>
<path d="M660 1650 c-12 -7 -12 -12 -2 -22 9 -9 15 -9 24 0 16 16 -2 34 -22
22z"/>
<path d="M761 1646 c-12 -14 -5 -26 16 -26 15 0 18 26 4 34 -5 3 -14 0 -20 -8z"/>
<path d="M675 1550 c-10 -16 42 -31 70 -20 14 5 25 14 25 20 0 6 -9 6 -22 1
-13 -5 -33 -5 -45 0 -13 5 -25 4 -28 -1z"/>
<path d="M130 750 c0 -5 13 -10 29 -10 17 0 33 5 36 10 4 6 -8 10 -29 10 -20
0 -36 -4 -36 -10z"/>
<path d="M2030 750 c0 -5 16 -10 35 -10 19 0 35 5 35 10 0 6 -16 10 -35 10
-19 0 -35 -4 -35 -10z"/>
</g>
</svg>
